<mxfile host="app.diagrams.net" agent="Mozilla/5.0 (Windows NT 10.0; Win64; x64) AppleWebKit/537.36 (KHTML, like Gecko) Chrome/138.0.0.0 Safari/537.36" version="28.0.9">
  <diagram name="หน้า-1" id="aeqF7X4MXf0Tq7_KX2Hd">
    <mxGraphModel dx="1601" dy="768" grid="1" gridSize="10" guides="1" tooltips="1" connect="1" arrows="1" fold="1" page="1" pageScale="1" pageWidth="827" pageHeight="1169" math="0" shadow="0">
      <root>
        <mxCell id="0" />
        <mxCell id="1" parent="0" />
        <mxCell id="oGDoPu6umGAKRyoV1yRE-61" style="edgeStyle=orthogonalEdgeStyle;rounded=0;orthogonalLoop=1;jettySize=auto;html=1;" edge="1" parent="1" source="oGDoPu6umGAKRyoV1yRE-62" target="oGDoPu6umGAKRyoV1yRE-64">
          <mxGeometry relative="1" as="geometry" />
        </mxCell>
        <mxCell id="oGDoPu6umGAKRyoV1yRE-62" value="Start" style="ellipse;whiteSpace=wrap;html=1;" vertex="1" parent="1">
          <mxGeometry x="348.0200000000001" y="40" width="120" height="80" as="geometry" />
        </mxCell>
        <mxCell id="oGDoPu6umGAKRyoV1yRE-63" style="edgeStyle=orthogonalEdgeStyle;rounded=0;orthogonalLoop=1;jettySize=auto;html=1;" edge="1" parent="1" source="oGDoPu6umGAKRyoV1yRE-64" target="oGDoPu6umGAKRyoV1yRE-96">
          <mxGeometry relative="1" as="geometry" />
        </mxCell>
        <mxCell id="oGDoPu6umGAKRyoV1yRE-64" value="Do you want to play game (1=play,-1=exit)" style="shape=parallelogram;perimeter=parallelogramPerimeter;whiteSpace=wrap;html=1;fixedSize=1;" vertex="1" parent="1">
          <mxGeometry x="238.01999999999998" y="170" width="340" height="60" as="geometry" />
        </mxCell>
        <mxCell id="oGDoPu6umGAKRyoV1yRE-65" style="edgeStyle=orthogonalEdgeStyle;rounded=0;orthogonalLoop=1;jettySize=auto;html=1;" edge="1" parent="1" source="oGDoPu6umGAKRyoV1yRE-67" target="oGDoPu6umGAKRyoV1yRE-69">
          <mxGeometry relative="1" as="geometry" />
        </mxCell>
        <mxCell id="oGDoPu6umGAKRyoV1yRE-66" style="edgeStyle=orthogonalEdgeStyle;rounded=0;orthogonalLoop=1;jettySize=auto;html=1;entryX=0.5;entryY=0;entryDx=0;entryDy=0;" edge="1" parent="1" source="oGDoPu6umGAKRyoV1yRE-67" target="oGDoPu6umGAKRyoV1yRE-97">
          <mxGeometry relative="1" as="geometry">
            <mxPoint x="788.0999999999999" y="1790" as="targetPoint" />
            <Array as="points">
              <mxPoint x="808.0999999999999" y="390" />
              <mxPoint x="808.0999999999999" y="1740" />
              <mxPoint x="408.1" y="1740" />
            </Array>
          </mxGeometry>
        </mxCell>
        <mxCell id="oGDoPu6umGAKRyoV1yRE-67" value="1=play || -1=exit" style="rhombus;whiteSpace=wrap;html=1;" vertex="1" parent="1">
          <mxGeometry x="258.1" y="350" width="300" height="80" as="geometry" />
        </mxCell>
        <mxCell id="oGDoPu6umGAKRyoV1yRE-68" style="edgeStyle=orthogonalEdgeStyle;rounded=0;orthogonalLoop=1;jettySize=auto;html=1;entryX=0.5;entryY=0;entryDx=0;entryDy=0;" edge="1" parent="1" source="oGDoPu6umGAKRyoV1yRE-69" target="oGDoPu6umGAKRyoV1yRE-104">
          <mxGeometry relative="1" as="geometry" />
        </mxCell>
        <mxCell id="oGDoPu6umGAKRyoV1yRE-69" value="Score=100" style="rounded=0;whiteSpace=wrap;html=1;" vertex="1" parent="1">
          <mxGeometry x="348.1" y="460" width="120" height="60" as="geometry" />
        </mxCell>
        <mxCell id="oGDoPu6umGAKRyoV1yRE-70" style="edgeStyle=orthogonalEdgeStyle;rounded=0;orthogonalLoop=1;jettySize=auto;html=1;" edge="1" parent="1" source="oGDoPu6umGAKRyoV1yRE-71" target="oGDoPu6umGAKRyoV1yRE-76">
          <mxGeometry relative="1" as="geometry" />
        </mxCell>
        <mxCell id="oGDoPu6umGAKRyoV1yRE-71" value="Guess the winning number (1-100) :" style="rounded=0;whiteSpace=wrap;html=1;" vertex="1" parent="1">
          <mxGeometry x="233.10000000000002" y="590" width="350" height="60" as="geometry" />
        </mxCell>
        <mxCell id="oGDoPu6umGAKRyoV1yRE-72" style="edgeStyle=orthogonalEdgeStyle;rounded=0;orthogonalLoop=1;jettySize=auto;html=1;entryX=0.5;entryY=0;entryDx=0;entryDy=0;" edge="1" parent="1" source="oGDoPu6umGAKRyoV1yRE-74" target="oGDoPu6umGAKRyoV1yRE-80">
          <mxGeometry relative="1" as="geometry" />
        </mxCell>
        <mxCell id="oGDoPu6umGAKRyoV1yRE-73" style="edgeStyle=orthogonalEdgeStyle;rounded=0;orthogonalLoop=1;jettySize=auto;html=1;entryX=0.5;entryY=0;entryDx=0;entryDy=0;" edge="1" parent="1" source="oGDoPu6umGAKRyoV1yRE-74" target="oGDoPu6umGAKRyoV1yRE-84">
          <mxGeometry relative="1" as="geometry" />
        </mxCell>
        <mxCell id="oGDoPu6umGAKRyoV1yRE-74" value="ตรวจสอบตัวเลย" style="rhombus;whiteSpace=wrap;html=1;" vertex="1" parent="1">
          <mxGeometry x="313.0000000000001" y="770" width="190" height="80" as="geometry" />
        </mxCell>
        <mxCell id="oGDoPu6umGAKRyoV1yRE-75" style="edgeStyle=orthogonalEdgeStyle;rounded=0;orthogonalLoop=1;jettySize=auto;html=1;entryX=0.5;entryY=0;entryDx=0;entryDy=0;" edge="1" parent="1" source="oGDoPu6umGAKRyoV1yRE-76" target="oGDoPu6umGAKRyoV1yRE-74">
          <mxGeometry relative="1" as="geometry" />
        </mxCell>
        <mxCell id="oGDoPu6umGAKRyoV1yRE-76" value="Guess the winning number (1-100)" style="shape=parallelogram;perimeter=parallelogramPerimeter;whiteSpace=wrap;html=1;fixedSize=1;" vertex="1" parent="1">
          <mxGeometry x="283.1" y="690" width="250" height="60" as="geometry" />
        </mxCell>
        <mxCell id="oGDoPu6umGAKRyoV1yRE-77" style="edgeStyle=orthogonalEdgeStyle;rounded=0;orthogonalLoop=1;jettySize=auto;html=1;" edge="1" parent="1" source="oGDoPu6umGAKRyoV1yRE-80" target="oGDoPu6umGAKRyoV1yRE-88">
          <mxGeometry relative="1" as="geometry" />
        </mxCell>
        <mxCell id="oGDoPu6umGAKRyoV1yRE-78" value="F" style="edgeLabel;html=1;align=center;verticalAlign=middle;resizable=0;points=[];" vertex="1" connectable="0" parent="oGDoPu6umGAKRyoV1yRE-77">
          <mxGeometry x="0.5107" relative="1" as="geometry">
            <mxPoint as="offset" />
          </mxGeometry>
        </mxCell>
        <mxCell id="oGDoPu6umGAKRyoV1yRE-79" style="edgeStyle=orthogonalEdgeStyle;rounded=0;orthogonalLoop=1;jettySize=auto;html=1;entryX=1;entryY=0;entryDx=0;entryDy=0;" edge="1" parent="1" source="oGDoPu6umGAKRyoV1yRE-80" target="oGDoPu6umGAKRyoV1yRE-94">
          <mxGeometry relative="1" as="geometry" />
        </mxCell>
        <mxCell id="oGDoPu6umGAKRyoV1yRE-80" value="ถ้าตัวเลข = 1-100" style="rhombus;whiteSpace=wrap;html=1;" vertex="1" parent="1">
          <mxGeometry x="533" y="920" width="190" height="80" as="geometry" />
        </mxCell>
        <mxCell id="oGDoPu6umGAKRyoV1yRE-81" style="edgeStyle=orthogonalEdgeStyle;rounded=0;orthogonalLoop=1;jettySize=auto;html=1;" edge="1" parent="1" source="oGDoPu6umGAKRyoV1yRE-84" target="oGDoPu6umGAKRyoV1yRE-86">
          <mxGeometry relative="1" as="geometry" />
        </mxCell>
        <mxCell id="oGDoPu6umGAKRyoV1yRE-82" value="F" style="edgeLabel;html=1;align=center;verticalAlign=middle;resizable=0;points=[];" vertex="1" connectable="0" parent="oGDoPu6umGAKRyoV1yRE-81">
          <mxGeometry x="0.6052" relative="1" as="geometry">
            <mxPoint as="offset" />
          </mxGeometry>
        </mxCell>
        <mxCell id="oGDoPu6umGAKRyoV1yRE-83" style="edgeStyle=orthogonalEdgeStyle;rounded=0;orthogonalLoop=1;jettySize=auto;html=1;entryX=0;entryY=0;entryDx=0;entryDy=0;" edge="1" parent="1" source="oGDoPu6umGAKRyoV1yRE-84" target="oGDoPu6umGAKRyoV1yRE-94">
          <mxGeometry relative="1" as="geometry" />
        </mxCell>
        <mxCell id="oGDoPu6umGAKRyoV1yRE-84" value="ถ้าตัวเลข = 1-100" style="rhombus;whiteSpace=wrap;html=1;" vertex="1" parent="1">
          <mxGeometry x="93" y="920" width="190" height="80" as="geometry" />
        </mxCell>
        <mxCell id="oGDoPu6umGAKRyoV1yRE-85" style="edgeStyle=orthogonalEdgeStyle;rounded=0;orthogonalLoop=1;jettySize=auto;html=1;entryX=0.5;entryY=0;entryDx=0;entryDy=0;" edge="1" parent="1" source="oGDoPu6umGAKRyoV1yRE-86" target="oGDoPu6umGAKRyoV1yRE-90">
          <mxGeometry relative="1" as="geometry" />
        </mxCell>
        <mxCell id="oGDoPu6umGAKRyoV1yRE-86" value="Score&amp;nbsp; -10" style="rounded=0;whiteSpace=wrap;html=1;" vertex="1" parent="1">
          <mxGeometry x="128" y="1020" width="120" height="60" as="geometry" />
        </mxCell>
        <mxCell id="oGDoPu6umGAKRyoV1yRE-87" style="edgeStyle=orthogonalEdgeStyle;rounded=0;orthogonalLoop=1;jettySize=auto;html=1;entryX=0.5;entryY=0;entryDx=0;entryDy=0;" edge="1" parent="1" source="oGDoPu6umGAKRyoV1yRE-88" target="oGDoPu6umGAKRyoV1yRE-92">
          <mxGeometry relative="1" as="geometry" />
        </mxCell>
        <mxCell id="oGDoPu6umGAKRyoV1yRE-88" value="Score&amp;nbsp; -10" style="rounded=0;whiteSpace=wrap;html=1;" vertex="1" parent="1">
          <mxGeometry x="568.0000000000001" y="1020" width="120" height="60" as="geometry" />
        </mxCell>
        <mxCell id="oGDoPu6umGAKRyoV1yRE-89" style="edgeStyle=orthogonalEdgeStyle;rounded=0;orthogonalLoop=1;jettySize=auto;html=1;entryX=0;entryY=0.5;entryDx=0;entryDy=0;" edge="1" parent="1" source="oGDoPu6umGAKRyoV1yRE-90" target="oGDoPu6umGAKRyoV1yRE-104">
          <mxGeometry relative="1" as="geometry">
            <Array as="points">
              <mxPoint x="38.10000000000002" y="1159" />
              <mxPoint x="38.10000000000002" y="550" />
            </Array>
          </mxGeometry>
        </mxCell>
        <mxCell id="oGDoPu6umGAKRyoV1yRE-90" value="Sorry, the winning number is HIGHER than" style="shape=parallelogram;perimeter=parallelogramPerimeter;whiteSpace=wrap;html=1;fixedSize=1;" vertex="1" parent="1">
          <mxGeometry x="63" y="1129" width="250" height="60" as="geometry" />
        </mxCell>
        <mxCell id="oGDoPu6umGAKRyoV1yRE-91" style="edgeStyle=orthogonalEdgeStyle;rounded=0;orthogonalLoop=1;jettySize=auto;html=1;entryX=1;entryY=0.5;entryDx=0;entryDy=0;" edge="1" parent="1" source="oGDoPu6umGAKRyoV1yRE-92" target="oGDoPu6umGAKRyoV1yRE-104">
          <mxGeometry relative="1" as="geometry">
            <Array as="points">
              <mxPoint x="778.0999999999999" y="1159" />
              <mxPoint x="778.0999999999999" y="550" />
            </Array>
          </mxGeometry>
        </mxCell>
        <mxCell id="oGDoPu6umGAKRyoV1yRE-92" value="Sorry, the winning number is LOWER than" style="shape=parallelogram;perimeter=parallelogramPerimeter;whiteSpace=wrap;html=1;fixedSize=1;" vertex="1" parent="1">
          <mxGeometry x="503.0000000000001" y="1129" width="250" height="60" as="geometry" />
        </mxCell>
        <mxCell id="oGDoPu6umGAKRyoV1yRE-93" style="edgeStyle=orthogonalEdgeStyle;rounded=0;orthogonalLoop=1;jettySize=auto;html=1;" edge="1" parent="1" source="oGDoPu6umGAKRyoV1yRE-94" target="oGDoPu6umGAKRyoV1yRE-100">
          <mxGeometry relative="1" as="geometry" />
        </mxCell>
        <mxCell id="oGDoPu6umGAKRyoV1yRE-94" value="" style="ellipse;whiteSpace=wrap;html=1;aspect=fixed;" vertex="1" parent="1">
          <mxGeometry x="393.0000000000001" y="1189" width="30" height="30" as="geometry" />
        </mxCell>
        <mxCell id="oGDoPu6umGAKRyoV1yRE-95" style="edgeStyle=orthogonalEdgeStyle;rounded=0;orthogonalLoop=1;jettySize=auto;html=1;" edge="1" parent="1" source="oGDoPu6umGAKRyoV1yRE-96" target="oGDoPu6umGAKRyoV1yRE-67">
          <mxGeometry relative="1" as="geometry" />
        </mxCell>
        <mxCell id="oGDoPu6umGAKRyoV1yRE-96" value="" style="ellipse;whiteSpace=wrap;html=1;aspect=fixed;" vertex="1" parent="1">
          <mxGeometry x="388.0200000000001" y="270" width="40" height="40" as="geometry" />
        </mxCell>
        <mxCell id="oGDoPu6umGAKRyoV1yRE-97" value="End" style="ellipse;whiteSpace=wrap;html=1;" vertex="1" parent="1">
          <mxGeometry x="348.0200000000001" y="1779" width="120" height="80" as="geometry" />
        </mxCell>
        <mxCell id="oGDoPu6umGAKRyoV1yRE-98" style="edgeStyle=orthogonalEdgeStyle;rounded=0;orthogonalLoop=1;jettySize=auto;html=1;entryX=0.5;entryY=0;entryDx=0;entryDy=0;" edge="1" parent="1" source="oGDoPu6umGAKRyoV1yRE-100" target="oGDoPu6umGAKRyoV1yRE-106">
          <mxGeometry relative="1" as="geometry">
            <Array as="points">
              <mxPoint x="188.10000000000002" y="1329" />
            </Array>
          </mxGeometry>
        </mxCell>
        <mxCell id="oGDoPu6umGAKRyoV1yRE-99" style="edgeStyle=orthogonalEdgeStyle;rounded=0;orthogonalLoop=1;jettySize=auto;html=1;entryX=0.5;entryY=0;entryDx=0;entryDy=0;" edge="1" parent="1" source="oGDoPu6umGAKRyoV1yRE-100" target="oGDoPu6umGAKRyoV1yRE-102">
          <mxGeometry relative="1" as="geometry">
            <Array as="points">
              <mxPoint x="628.0999999999999" y="1329" />
            </Array>
          </mxGeometry>
        </mxCell>
        <mxCell id="oGDoPu6umGAKRyoV1yRE-100" value="Score = 0 หริอ ไม่" style="rhombus;whiteSpace=wrap;html=1;" vertex="1" parent="1">
          <mxGeometry x="313.0000000000001" y="1289" width="190" height="80" as="geometry" />
        </mxCell>
        <mxCell id="oGDoPu6umGAKRyoV1yRE-101" style="edgeStyle=orthogonalEdgeStyle;rounded=0;orthogonalLoop=1;jettySize=auto;html=1;" edge="1" parent="1" source="oGDoPu6umGAKRyoV1yRE-102" target="oGDoPu6umGAKRyoV1yRE-108">
          <mxGeometry relative="1" as="geometry" />
        </mxCell>
        <mxCell id="oGDoPu6umGAKRyoV1yRE-102" value="Score this game: 60" style="shape=parallelogram;perimeter=parallelogramPerimeter;whiteSpace=wrap;html=1;fixedSize=1;" vertex="1" parent="1">
          <mxGeometry x="458" y="1409" width="340" height="60" as="geometry" />
        </mxCell>
        <mxCell id="oGDoPu6umGAKRyoV1yRE-103" style="edgeStyle=orthogonalEdgeStyle;rounded=0;orthogonalLoop=1;jettySize=auto;html=1;entryX=0.5;entryY=0;entryDx=0;entryDy=0;" edge="1" parent="1" source="oGDoPu6umGAKRyoV1yRE-104" target="oGDoPu6umGAKRyoV1yRE-71">
          <mxGeometry relative="1" as="geometry" />
        </mxCell>
        <mxCell id="oGDoPu6umGAKRyoV1yRE-104" value="" style="ellipse;whiteSpace=wrap;html=1;aspect=fixed;" vertex="1" parent="1">
          <mxGeometry x="398.1" y="540" width="20" height="20" as="geometry" />
        </mxCell>
        <mxCell id="oGDoPu6umGAKRyoV1yRE-105" style="edgeStyle=orthogonalEdgeStyle;rounded=0;orthogonalLoop=1;jettySize=auto;html=1;" edge="1" parent="1" source="oGDoPu6umGAKRyoV1yRE-106">
          <mxGeometry relative="1" as="geometry">
            <mxPoint x="188.0000000000001" y="1690" as="targetPoint" />
          </mxGeometry>
        </mxCell>
        <mxCell id="oGDoPu6umGAKRyoV1yRE-106" value="Do you want to play game (1=play,-1=exit)" style="shape=parallelogram;perimeter=parallelogramPerimeter;whiteSpace=wrap;html=1;fixedSize=1;" vertex="1" parent="1">
          <mxGeometry x="18" y="1409" width="340" height="60" as="geometry" />
        </mxCell>
        <mxCell id="oGDoPu6umGAKRyoV1yRE-107" style="edgeStyle=orthogonalEdgeStyle;rounded=0;orthogonalLoop=1;jettySize=auto;html=1;" edge="1" parent="1" source="oGDoPu6umGAKRyoV1yRE-108" target="oGDoPu6umGAKRyoV1yRE-110">
          <mxGeometry relative="1" as="geometry" />
        </mxCell>
        <mxCell id="oGDoPu6umGAKRyoV1yRE-108" value="That is correct! The winning number is (ตัวที่สุ่ม)" style="shape=parallelogram;perimeter=parallelogramPerimeter;whiteSpace=wrap;html=1;fixedSize=1;" vertex="1" parent="1">
          <mxGeometry x="458" y="1499" width="340" height="60" as="geometry" />
        </mxCell>
        <mxCell id="oGDoPu6umGAKRyoV1yRE-109" style="edgeStyle=orthogonalEdgeStyle;rounded=0;orthogonalLoop=1;jettySize=auto;html=1;entryX=1;entryY=0.5;entryDx=0;entryDy=0;" edge="1" parent="1" source="oGDoPu6umGAKRyoV1yRE-110" target="oGDoPu6umGAKRyoV1yRE-112">
          <mxGeometry relative="1" as="geometry">
            <Array as="points">
              <mxPoint x="628.0999999999999" y="1695" />
            </Array>
          </mxGeometry>
        </mxCell>
        <mxCell id="oGDoPu6umGAKRyoV1yRE-110" value="Do you want to play game (1=play,-1=exit)" style="shape=parallelogram;perimeter=parallelogramPerimeter;whiteSpace=wrap;html=1;fixedSize=1;" vertex="1" parent="1">
          <mxGeometry x="458" y="1589" width="340" height="60" as="geometry" />
        </mxCell>
        <mxCell id="oGDoPu6umGAKRyoV1yRE-111" style="edgeStyle=orthogonalEdgeStyle;rounded=0;orthogonalLoop=1;jettySize=auto;html=1;entryX=0;entryY=0.5;entryDx=0;entryDy=0;" edge="1" parent="1" source="oGDoPu6umGAKRyoV1yRE-112" target="oGDoPu6umGAKRyoV1yRE-96">
          <mxGeometry relative="1" as="geometry">
            <Array as="points">
              <mxPoint x="18.100000000000023" y="1695" />
              <mxPoint x="18.100000000000023" y="290" />
            </Array>
          </mxGeometry>
        </mxCell>
        <mxCell id="oGDoPu6umGAKRyoV1yRE-112" value="" style="ellipse;whiteSpace=wrap;html=1;aspect=fixed;" vertex="1" parent="1">
          <mxGeometry x="393.1" y="1680" width="30" height="30" as="geometry" />
        </mxCell>
      </root>
    </mxGraphModel>
  </diagram>
</mxfile>
